<?xml version="1.0" encoding="utf-8"?>
<!-- Generator: Adobe Illustrator 19.1.0, SVG Export Plug-In . SVG Version: 6.00 Build 0)  -->
<svg version="1.1" id="Layer_4" xmlns="http://www.w3.org/2000/svg" xmlns:xlink="http://www.w3.org/1999/xlink" x="0px" y="0px"
	 width="153.2px" height="45px" viewBox="0 0 153.2 45" style="enable-background:new 0 0 153.2 45;" xml:space="preserve">
<g>
	<g>
		<path style="fill:#FFFFFF;" d="M57.2,20.3c3.7,1.7,5.1,4,5,7c-0.1,4.6-3.7,7.4-10,7.4c-3.1,0-5.2-0.7-6.7-1.4v-5.6
			c1-0.2,2-0.5,3-0.5c0.1,1,0.4,1.8,0.8,2.7c0.6,0.1,1.3,0.2,2.1,0.2c2.4,0,3.7-0.8,3.7-2.1c0-1.1-0.7-1.6-2.3-2.6l-3.2-1.8
			c-2-1.2-3.7-3.1-3.7-6c0-4.1,3.6-7.1,9.6-7.1c3.1,0,5.6,0.9,5.6,0.9v3.7v2.3c-1,0.2-2,0.5-3,0.5c-0.1-0.9-0.4-1.7-0.8-2.6
			C57,15,56.5,15,56.1,15c-2.2,0-3.5,0.8-3.5,2c0,0.8,0.6,1.3,1.9,2L57.2,20.3z"/>
		<path style="fill:#FFFFFF;" d="M78.9,29.1c0.7,0,1.7,0.2,2.3,0.3c0.4,0.8,0.5,2,0.5,3.1c-2.2,0.3-4.1,1-6.2,1.9h-1.3
			c-0.4-0.9-0.7-1.8-0.9-2.7c-1.1,1.6-2.8,2.7-4.7,2.7c-2.4,0-4.1-1.8-4.1-4.4c0-3.7,3.2-5.4,7.9-6.4l0.6-0.1
			c-0.3-1.6-1.3-1.9-2.3-1.9c-0.8,0-1.4,0.2-1.9,0.5c-0.2,0.6-0.4,1.2-0.5,1.9c-1,0-2-0.3-3-0.5v-4.7c0,0,2.4-1.4,6.4-1.4
			c4.9,0,7.4,2.2,7.2,7L78.7,29L78.9,29.1z M72.6,26.9C71,27.3,70,27.9,70,28.9c0,0.8,0.5,1.3,1.3,1.3c1.1,0,1.7-1.1,1.8-2.9l0-0.5
			L72.6,26.9z"/>
		<path style="fill:#FFFFFF;" d="M99.7,17.5c0.2,1,0.5,2,0.5,3c-0.5,0.1-0.9,0.2-1.4,0.3c-0.3,1-1,3.2-1.9,5.4l-3.3,7.8
			c-2.3,0.4-4,0.4-5.7,0.3l-4-9.9c-0.5-1.4-0.8-2.7-1-3.5c-0.5-0.2-1-0.3-1.5-0.4c0-1,0.3-2,0.5-3h1.3c1.6,0,3.2-0.2,4.8-0.3
			l2.3,7.6c0.3,1.1,0.7,3,1,4.2c0.6-2.9,1.6-5.5,2.8-7.6c-0.9-0.4-1.8-0.7-2.8-0.8c0-1,0.3-2,0.5-3L99.7,17.5z"/>
		<path style="fill:#FFFFFF;" d="M107.1,26.5c0.5,2.4,1.9,3.4,3.9,3.4c2.3,0,3.7-1.4,3.7-1.4c0.9,0.5,1.1,1.6,1.1,3
			c0,0-2,2.9-6.7,2.9c-4.8,0-7.9-3.2-7.9-8.3c0-5.4,3.4-8.8,8.2-8.8c4.2,0,7.6,2.6,6.7,9L107.1,26.5z M110.9,23.4
			c0-1.5-0.4-2.6-1.7-2.6c-1.3,0-1.9,1.1-2.1,2.7L110.9,23.4z"/>
		<path style="fill:#FFFFFF;" d="M118,27.8v-4h9.9v4H118z"/>
		<path style="fill:#FFFFFF;" d="M142.3,10.3c6.9,0,11.2,4.6,10.9,11.8c-0.3,7.4-5.3,12.6-12.4,12.6c-6.9,0-11.2-4.8-10.9-12
			C130.1,15.3,135.2,10.3,142.3,10.3L142.3,10.3z M136.5,22.4c0,4.3,2,7.4,5.1,7.4c3,0,5-3,5-7.4c0-4.3-2-7.1-5.1-7.1
			S136.5,18,136.5,22.4z"/>
	</g>
	<path style="fill:#FFFFFF;" d="M35.4,13.5c-0.1-0.6-0.3-0.8-0.5-1.5c0,0,0,0,0-0.1c-0.5-3.2-2.5-5.8-5.2-7.2
		c-1.1-0.6-2.3-0.9-3.6-1c-0.1,0-0.2,0-0.2,0c0,0,0,0,0,0c0,0,0,0-0.1,0c0,0,0,0,0,0c-0.1,0-0.2,0.1-0.3,0.1V3.3
		C25.5,1.5,24,0,22.2,0H3.3C1.5,0,0,1.5,0,3.3v38.4C0,43.5,1.5,45,3.3,45h18.9c1.8,0,3.3-1.5,3.3-3.3V25c0.1-0.1,0.3-0.2,0.4-0.2
		c0.1,0,0.1,0,0.2,0l0,0c0.1,0,0.1,0.1,0.2,0.1c0,0,0,0,0,0c0.7,0.4,0.9,1.3,0.9,2.1v10.1c0,2.4,1.8,4.2,4.1,4.2
		c2.3,0,4.1-1.9,4.1-4.2V15.2v-1.5C35.4,13.6,35.4,13.6,35.4,13.5z M10.2,2.6h0.3h2h0.7h0h0.4h1.6v0c0.6,0,1,0.5,1,1
		c0,0.5-0.4,1-0.9,1h-0.3h-1.5h-0.4h0h-0.7h-2.1v0c-0.6,0-1-0.5-1-1C9.3,3.1,9.7,2.7,10.2,2.6z M12.7,43.3c-1.2,0-2.1-0.9-2.1-2.1
		c0-1.2,0.9-2.1,2.1-2.1c1.2,0,2.1,0.9,2.1,2.1C14.8,42.3,13.9,43.3,12.7,43.3z M22,36c0,0.1,0,0.1,0,0.2c-0.1,0.9-0.8,1.6-1.8,1.6
		v0H5.3v0c-1,0-1.8-0.8-1.8-1.8h0V9h0c0-0.9,0.6-1.6,1.5-1.7c0.1,0,0.2,0,0.3,0c0.1,0,0.2,0,0.3,0h14.3c0.1,0,0.2,0,0.3,0
		c0.1,0,0.2,0,0.3,0C21.3,7.3,21.9,8,22,8.8c0,0.1,0,0.1,0,0.2s0,0.1,0,0.2v26.7C22,35.9,22,35.9,22,36z M32.6,15.8v21.4
		c0,0.7-0.4,1.4-1.2,1.4c-0.8,0-1.2-0.7-1.2-1.4V27.1c0-2.8-1.6-4.8-4.2-5.1h0c0,0-0.1,0-0.1,0c-0.1,0-0.2-0.1-0.3-0.2V5.7
		c0.1,0.1,0.3,0.1,0.4,0.1c0,0,0,0,0.1,0c0,0,0,0,0.1,0v0c0.7,0.1,1.3,0.2,1.9,0.5c0.1,0,0.1,0,0.2,0.1c0,0,0,0,0,0
		c0.5,0.2,0.8,0.7,0.8,1.3c0,0.1,0,0.1,0,0.2c0,0.1,0,0.2-0.1,0.3l-0.6,2.6c-0.4,1.5,0.6,3.1,2.1,3.4l1.1,0.2c0,0,0.1,0,0.1,0
		c0.6,0.1,1,0.7,1.1,1.3C32.6,15.6,32.6,15.7,32.6,15.8C32.6,15.7,32.6,15.8,32.6,15.8z"/>
</g>
</svg>
