<?xml version="1.0" encoding="utf-8"?>
<!-- Generator: Adobe Illustrator 19.1.0, SVG Export Plug-In . SVG Version: 6.00 Build 0)  -->
<svg version="1.1" id="Layer_1" xmlns="http://www.w3.org/2000/svg" xmlns:xlink="http://www.w3.org/1999/xlink" x="0px" y="0px"
	 width="300px" height="300px" viewBox="-489 151 300 300" style="enable-background:new -489 151 300 300;" xml:space="preserve">
<style type="text/css">
	.st0{fill:none;}
	.st1{fill:#EF3D2A;}
	.st2{fill:#F8F8F8;}
</style>
<g>
	<path class="st0" d="M-369,246.2L-369,246.2h9.9l0,0c0.6,0,1.1-0.5,1.2-1.1V245v-0.1v-17.8V227v-0.1c-0.1-0.5-0.5-0.9-1-1
		c-0.1,0-0.1,0-0.2,0s-0.1,0-0.2,0h-9.5c-0.1,0-0.1,0-0.2,0s-0.1,0-0.2,0c-0.6,0.1-1,0.6-1,1.2l0,0v18l0,0
		C-370.1,245.7-369.6,246.2-369,246.2z"/>
	<path class="st0" d="M-190.3,413.9l-2.1-2.1c-0.7-0.7-1.8-0.7-2.4,0l-2.1,2.1c-0.7,0.7-0.7,1.8,0,2.4l2.1,2.1
		c0.7,0.7,1.8,0.7,2.4,0l2.1-2.1C-189.6,415.7-189.6,414.6-190.3,413.9z"/>
	<path class="st0" d="M-365.6,224.1L-365.6,224.1h1.4h0.5l0,0h0.3h1h0.2c0.3,0,0.6-0.3,0.6-0.7s-0.3-0.7-0.7-0.7l0,0h-1.1h-0.3l0,0
		h-0.5h-1.3h-0.2c-0.3,0-0.6,0.3-0.6,0.7C-366.3,223.8-366,224.1-365.6,224.1z"/>
	<path class="st0" d="M-364,247.1c-0.8,0-1.4,0.6-1.4,1.4s0.6,1.4,1.4,1.4s1.4-0.6,1.4-1.4S-363.2,247.1-364,247.1z"/>
	<path class="st0" d="M-397.7,446.1c0.2-0.4,0-0.8-0.3-1s-0.8,0-0.9,0.3l0,0c-0.2,0.4,0,0.8,0.3,1
		C-398.3,446.5-397.9,446.4-397.7,446.1z"/>
	<path class="st0" d="M-376.5,194.9c0.1-0.1,0.1-0.3,0.1-0.4V191c0-0.1,0-0.3-0.1-0.4l3.1-3.1c0.1-0.1,0.1-0.3,0-0.4
		c-0.1-0.1-0.3-0.1-0.4,0l-3.1,3.1c-0.1-0.1-0.3-0.1-0.4-0.1h-2.8c-0.1,0-0.3,0-0.4,0.1l-3.1-3.1c-0.1-0.1-0.3-0.1-0.4,0
		c-0.1,0.1-0.1,0.3,0,0.4l3.1,3.1c-0.1,0.1-0.1,0.3-0.1,0.4v3.5c0,0.1,0,0.3,0.1,0.4l-3.1,3.1c-0.1,0.1-0.1,0.3,0,0.4
		c0.1,0.1,0.3,0.1,0.4,0l3.1-3.1c0.1,0.1,0.3,0.1,0.4,0.1h2.9c0.1,0,0.3,0,0.4-0.1l3.1,3.1c0.1,0.1,0.3,0.1,0.4,0
		c0.1-0.1,0.1-0.3,0-0.4L-376.5,194.9z M-377.1,194.1c0,0.4-0.3,0.7-0.7,0.7h-2.1c-0.4,0-0.7-0.3-0.7-0.7v-2.8
		c0-0.4,0.3-0.7,0.7-0.7h2.1c0.4,0,0.7,0.3,0.7,0.7V194.1z"/>
	<path class="st0" d="M-398.3,442.9C-398.3,442.9-398.3,443-398.3,442.9c0,0.4,0.3,0.8,0.6,0.8c0.4,0,0.7-0.2,0.8-0.6l0,0
		c0.2-2-0.3-4.1-1.6-5.8l0,0l0,0c-0.2-0.3-0.7-0.4-1-0.2c-0.3,0.2-0.4,0.7-0.2,1C-398.5,439.6-398.1,441.3-398.3,442.9z"/>
	<path class="st0" d="M-337.9,300.2h-0.1h-0.1h-11.6h-0.1h-0.1c-0.9,0.1-1.5,0.8-1.6,1.6v0.1v0.1v3.1v0.1v0.1c0,0.9,0.8,1.6,1.7,1.6
		h11.8c0.9,0,1.7-0.7,1.7-1.6v-0.1v-0.1V302v-0.1v-0.1C-336.4,301-337.1,300.3-337.9,300.2z"/>
	<path class="st0" d="M-429.4,333.3v0.1c0,0.6,0.5,1,1,1h8.8c0.6,0,1-0.5,1-1c0-0.1,0-0.1,0-0.2l0,0l-0.8-6
		c-0.1-0.6-0.7-0.9-1.2-0.9c-0.1,0-0.2,0-0.2,0l0,0c-1,0.2-2.1,0.3-3.2,0.3c-1.1,0-2.1-0.1-3.1-0.3h-0.1l0,0c-0.1,0-0.1,0-0.2,0l0,0
		c-0.5,0-1.1,0.3-1.2,0.9L-429.4,333.3L-429.4,333.3z"/>
	<path class="st0" d="M-330.7,277.4C-330.7,277.3-330.7,277.3-330.7,277.4c0-1-0.7-1.7-1.6-1.7h-0.1h-0.1h-22.9h-0.1h-0.1
		c-0.9,0.1-1.5,0.8-1.6,1.6v0.1v0.1v17.3v0.1v0.1c0,0.9,0.8,1.6,1.7,1.6h23.2c0.9,0,1.7-0.7,1.7-1.6v-0.1v-0.1L-330.7,277.4
		L-330.7,277.4z"/>
	<path class="st0" d="M-429,322.3c0.2-0.4,0.1-0.9-0.3-1.1c-1.7-0.9-3-2.5-3.6-4.2l0,0c-0.2-0.4-0.6-0.6-1-0.4
		c-0.4,0.1-0.6,0.6-0.5,1l0,0l0,0c0.7,2.1,2.2,3.9,4.3,5C-429.7,322.8-429.2,322.7-429,322.3z"/>
	<path class="st0" d="M-366.8,383.3c-0.1-0.1-0.2-0.1-0.4-0.2c-0.2,0-0.3-0.1-0.5-0.1c-0.8,0-1.5,0.5-1.7,1.2l0,0c0,0.1,0,0.1,0,0.2
		c-0.5,1.9-1.1,3.7-1.8,5.4c-0.5,1.1-1,2.1-1.5,3.1c-0.4,0.7-0.8,1.4-1.2,2c0,0,0,0,0,0.1c-0.1,0.2-0.2,0.4-0.2,0.6
		c0,0.7,0.5,1.2,1.2,1.2h0.1l0,0c0.1,0,0.2,0,0.2,0c1.9-0.4,3.6-1.3,4.9-2.6c1.9-1.9,3.1-4.5,3.1-7.4
		C-364.5,385.3-365.4,383.9-366.8,383.3z"/>
	<circle class="st0" cx="-329" cy="361" r="2.4"/>
	<path class="st0" d="M-329,354.1c-3.8,0-6.9,3.1-6.9,6.9s3.1,6.9,6.9,6.9s6.9-3.1,6.9-6.9S-325.2,354.1-329,354.1z M-329,366.4
		c-3,0-5.4-2.4-5.4-5.4s2.4-5.4,5.4-5.4s5.4,2.4,5.4,5.4S-326,366.4-329,366.4z"/>
	<path class="st0" d="M-379.3,183.7c0.6,0,2,0,2.7-0.1c0.7-0.1,0.9-0.3,1.2-0.5c0.4-0.3,0.7-0.8,0.8-0.9c0.1-0.2,0.1-0.4,0-0.5
		c-0.2-0.3-0.6-0.2-0.6-0.2s-3.5,0-3.7,0c-0.2,0-0.8,0.1-1,0.6c-0.2,0.3-1,2-1,2l0.6-0.2C-380.4,183.9-379.9,183.7-379.3,183.7z"/>
	<circle class="st0" cx="-387.2" cy="292.8" r="1.2"/>
	<path class="st0" d="M-423.4,200.4L-423.4,200.4c1.6,0.2,3,0.9,4,2l0,0c0.2,0.2,0.6,0.3,0.9,0c0.3-0.2,0.3-0.6,0.1-0.9l0,0
		c-1.2-1.3-2.9-2.2-4.8-2.4l0,0c-0.3,0-0.7,0.2-0.7,0.6C-424,200.1-423.7,200.4-423.4,200.4z"/>
	<path class="st0" d="M-418.2,204.4L-418.2,204.4L-418.2,204.4c0.2,0.3,0.5,0.5,0.8,0.4s0.5-0.5,0.4-0.8c-0.1-0.3-0.5-0.5-0.8-0.4
		C-418.2,203.7-418.3,204-418.2,204.4L-418.2,204.4z"/>
	<path class="st0" d="M-318.4,289.5C-318.5,289.5-318.5,289.5-318.4,289.5l-1.4-0.3c-1.9-0.4-3-2.3-2.6-4.1l0.7-3.1
		c0-0.1,0.1-0.2,0.1-0.3s0-0.1,0-0.2c0-0.7-0.4-1.3-1-1.5l0,0c-0.1,0-0.2-0.1-0.3-0.1c-0.7-0.3-1.5-0.5-2.3-0.5l0,0h-0.1
		c-0.5,0-0.9,0.4-0.9,0.9v17.8c0,0.4,0.3,0.8,0.7,0.8c0.1,0,0.1,0,0.2,0l0,0c3,0.4,5,2.8,5,6.2v12.2c0,0.8,0.5,1.7,1.5,1.7
		s1.5-0.8,1.5-1.7v-25.8v-0.1v-0.1C-317.2,290.3-317.7,289.7-318.4,289.5z"/>
	<path class="st0" d="M-291.1,285.1h4.2c0.4,0,0.7-0.2,0.8-0.5c-0.1,0-0.1,0-0.2,0h-5.4c-0.1,0-0.1,0-0.2,0
		C-291.7,284.9-291.4,285.1-291.1,285.1z"/>
	<circle class="st0" cx="-232.7" cy="198.8" r="2"/>
	<circle class="st0" cx="-245.3" cy="198.8" r="2"/>
	<path class="st0" d="M-244,258c1.1-1.1,1.1-2.8,0-3.8c-1.1-1.1-2.8-1.1-3.8,0c-1.1,1.1-1.1,2.8,0,3.8
		C-246.8,259.1-245.1,259.1-244,258z"/>
	<circle class="st0" cx="-239.1" cy="269.9" r="2.7"/>
	<path class="st0" d="M-227.4,192.9h-23.1c-0.5,0-0.8,0.4-0.9,0.8l0,0l0,0v14.4l0,0l0,0c0,0.4,0.4,0.8,0.8,0.8c0,0,0,0,0.1,0
		c0,0,0,0,0.1,0h1.2h0.1h0.1c0.5,0,0.9-0.3,1.1-0.8l0,0l1.1-2.7l0,0v-0.1c0.2-0.5,0.7-0.8,1.2-0.8h6.7h6.7c0.5,0,1,0.3,1.2,0.8v0.1
		l0,0l1.1,2.7l0,0c0.2,0.4,0.6,0.7,1.1,0.8h0.1h0.1h1.2c0,0,0,0,0.1,0c0,0,0,0,0.1,0c0.4,0,0.8-0.4,0.8-0.8l0,0l0,0v-14.3l0,0l0,0
		C-226.6,193.2-227,192.9-227.4,192.9z M-228.3,202.2C-228.3,202.3-228.3,202.3-228.3,202.2c0,0.5-0.4,0.8-0.8,0.9c0,0,0,0-0.1,0
		c0,0,0,0-0.1,0h-2.9h-6.8h-6.8h-2.9c0,0,0,0-0.1,0c0,0,0,0-0.1,0c-0.4,0-0.8-0.4-0.8-0.8l0,0l0,0v-6.7l0,0l0,0
		c0-0.5,0.4-0.8,0.9-0.8h19.7c0.5,0,0.8,0.4,0.9,0.8l0,0l0,0L-228.3,202.2L-228.3,202.2z"/>
	<path class="st0" d="M-249.9,268.4c1.2,0.5,1.6-0.3,1.8-0.6c0.2-0.4,0.4-0.4,0.8-0.2c0.3,0.2,1,0.9,1.6,0.5
		c0.6-0.5,0.8-1.3,0.7-1.9c-0.1-0.6-0.8-0.7-1.2-0.8c-0.5-0.1-0.6-0.3-0.4-0.9c0.2-0.6-0.1-1.5-1-1.7c-1-0.1-2.7,0.3-3.3,2.1
		C-251.6,266.4-251.1,267.9-249.9,268.4z"/>
	<path class="st0" d="M-452.2,391.4c-0.4-0.3-0.6-0.8-0.6-1.4v-3v-0.8v-0.1v-0.4v-0.4V385c-0.1-0.6-0.6-1-1.1-1
		c-0.6,0-1.1,0.5-1.1,1.1l0,0v0.5v0.4v0.1v0.8v3c0,0.5-0.2,1-0.6,1.4l-0.1,0.1c-0.6,0.5-1,1.3-1,2.2c0,1.6,1.3,2.9,2.9,2.9
		s2.9-1.3,2.9-2.9c0-0.9-0.4-1.7-1-2.2C-452.2,391.4-452.2,391.4-452.2,391.4z"/>
	<path class="st0" d="M-218.5,378.7l-8.3-8.3l-13,13l8.3,8.3L-218.5,378.7z M-226.7,373.1l5.7,5.7l-10.4,10.4l-5.7-5.7L-226.7,373.1
		z"/>
	<path class="st0" d="M-462.8,380.7c0.1,0,0.1,0,0.2-0.1l0,0l0,0c1.8-2,4.2-3.2,7.1-3.4c3.5-0.2,6.2,1.3,8.2,3.9c0,0,0,0.1,0.1,0.1
		c0.1,0.1,0.2,0.1,0.3,0.1s0.1,0,0.2-0.1c0,0,0,0,0.1,0l1.1-0.7c0,0,0.1,0,0.1-0.1c0.1-0.1,0.1-0.2,0.1-0.3c0-0.1,0-0.1-0.1-0.2
		c0,0,0,0,0-0.1c-2.1-2.9-5.5-4.6-9.3-4.4c-3.5,0.2-6.5,2.1-8.3,4.9c0,0,0,0.1,0,0.2C-463,380.7-462.9,380.8-462.8,380.7z"/>
	<path class="st0" d="M-328.5,173.5c1.1,0,2.1-0.1,3.1-0.3l0,0h0.1c0.6-0.2,1.1-0.8,1.1-1.4c0-0.7-0.5-1.3-1.1-1.4
		c-0.1,0-0.2-0.1-0.3-0.1c-6.6-1.3-11.9-6.5-13.2-13.1c0-0.2,0-0.3-0.1-0.5c-0.2-0.6-0.8-1-1.4-1c-0.7,0-1.2,0.4-1.4,1.1
		c0,0.1,0,0.1-0.1,0.2c-0.2,1-0.3,2-0.3,3.1C-342.1,167.4-336,173.5-328.5,173.5z"/>
	<path class="st0" d="M-243.7,324.8c0-1.2-1-2.3-2.3-2.3h-2.2c-0.8,0-1.5-0.7-1.5-1.5l0,0c0-0.8,0.7-1.5,1.5-1.5h2.2
		c1.2,0,2.3-1,2.3-2.3c0-0.2,0-0.4-0.1-0.5c0-0.1,0-0.1,0-0.2c-0.7-2.5-2.1-4.8-4-6.8c-1.9-1.9-4.2-3.3-6.8-4l0,0
		c-0.2-0.1-0.4-0.1-0.7-0.1c-1.2,0-2.3,1-2.3,2.3v2.1c0,0.8-0.7,1.5-1.5,1.5h0.1c-0.8,0-1.5-0.7-1.5-1.5v-2.1c0-1.2-1-2.3-2.3-2.3
		c-0.2,0-0.5,0-0.7,0.1l0,0c-2.5,0.7-4.9,2.1-6.8,4c-1.9,1.9-3.3,4.3-4,6.9l0,0c0,0.2-0.1,0.4-0.1,0.6c0,1.2,1,2.3,2.3,2.3h2.1
		c0.8,0,1.5,0.7,1.5,1.5v0.1c0,0.8-0.7,1.5-1.5,1.5h-2.1c-1.2,0-2.3,1-2.3,2.3c0,0.2,0,0.5,0.1,0.7l0,0c0.7,2.5,2.1,4.9,4,6.8
		c1.9,1.9,4.2,3.3,6.8,4h0.1c0.2,0,0.4,0.1,0.6,0.1c1.2,0,2.3-1,2.3-2.3V332c0-0.8,0.7-1.5,1.5-1.5h0.1c0.8,0,1.5,0.7,1.5,1.5v2.2
		c0,1.2,1,2.3,2.3,2.3c0.2,0,0.4,0,0.5-0.1c0.1,0,0.1,0,0.2,0c2.5-0.7,4.8-2.1,6.7-4c1.9-1.9,3.3-4.2,4-6.8
		C-243.7,325.2-243.7,325-243.7,324.8z"/>
	<rect x="-290.4" y="267.6" class="st0" width="4.2" height="2.4"/>
	<path class="st0" d="M-272.3,380.2c0.2-0.1,0.4-0.3,0.6-0.5c1.4-1.4,1.7-3.6,0.7-5.2c-0.2-0.3-0.4-0.6-0.7-0.9
		c-0.3-0.3-0.5-0.5-0.8-0.6c-1.7-1-3.9-0.8-5.3,0.6c-0.2,0.2-0.4,0.4-0.5,0.6c-1.2,1.7-1,4,0.5,5.6
		C-276.4,381.2-274,381.3-272.3,380.2z"/>
	<path class="st0" d="M-290.1,272.8c0,0,3,1.1,3.5,6l0.9,4.9c0,0,1.7-0.6,2-1.9v-8.2c0,0-0.5-2.4-2.5-2.4h-3.8
		C-290.1,271.2-292,272.3-290.1,272.8z"/>
	<path class="st1" d="M-189.4,186c0,0.9,0.2,1.7,0.4,2.4v-10C-189.3,180.9-189.4,183.4-189.4,186z"/>
	<g>
		<path class="st2" d="M-476.8,241c-0.1,0-0.2,0-0.3,0l-6.7,0.8l0,0h-0.1c-1,0.1-1.9,0.9-2.2,1.9v0.1v0.1l0,0l-0.9,3.2v0.1l0,0
			c-0.1,0.5,0.2,1,0.7,1.1c0.5,0.1,0.9-0.2,1.1-0.6v-0.1l0,0l0.8-3.1l0,0v-0.1c0.1-0.3,0.4-0.5,0.7-0.6l0,0h0.1l6.8-0.9
			c0.3-0.1,0.6-0.4,0.7-0.7C-475.9,241.6-476.3,241.1-476.8,241z"/>
		<path class="st2" d="M-488.2,251.4h1.7h0.2h2.7l0,0c0.5,0,1,0.5,1,1c0,0.2,0,0.3-0.1,0.4c0,0.1-0.1,0.1-0.1,0.2
			c-0.5,0.7-0.8,1.6-1,2.4c-0.1,0.3-0.1,0.5-0.1,0.8v0.3l-1.2,18.5l-0.2,2.8v0.1c0,0.1,0,0.1,0,0.2c-0.1,0.4-0.5,0.8-1,0.8h-2.7v2.1
			h2.7c1.5,0,2.8-1.1,3-2.6v-0.5l1.1-16.2l0.3-5c0-0.1,0-0.2,0-0.3c0.1-0.8,0.3-1.6,0.7-2.2c0.1-0.1,0.1-0.2,0.2-0.2
			c0.3-0.4,0.4-1,0.4-1.5s-0.1-1-0.4-1.5c-0.1-0.3-0.3-0.5-0.5-0.7c-0.6-0.6-1.3-0.9-2.2-0.9h-2h-1.9h-1.4v2.1h0.8V251.4z"/>
		<path class="st2" d="M-488.1,276.8c0.5,0,0.9-0.5,0.9-1l0,0l0.1-0.9l0.8-12.4l0,0v-0.2c0-0.6-0.5-1.1-1.1-1.1l0,0l0,0
			c-0.1,0-0.1,0-0.2,0c-0.5,0-0.9,0.1-1.3,0h-0.1v15.4h0.7h0.2V276.8z"/>
		<path class="st2" d="M-487.6,252.6c-0.5-0.1-0.9,0.2-1.1,0.7v0.1c0,0.1,0,0.1,0,0.2l0,0l-0.3,1v5.6c0.3-0.1,0.5-0.3,0.6-0.5
			l0.1-0.2l0,0l1.5-5.6v-0.2v-0.1C-486.8,253.1-487.1,252.6-487.6,252.6z"/>
		<path class="st2" d="M-201.1,250.3c-0.2,0.2-0.4,0.4-0.5,0.7c-0.2,0.4-0.4,0.9-0.4,1.5s0.1,1.1,0.4,1.5c0.1,0.1,0.1,0.2,0.2,0.3
			c0.4,0.7,0.7,1.4,0.7,2.2c0,0.1,0,0.2,0,0.3l0.3,5l1.1,16.2v0.4c0.2,1.5,1.5,2.7,3,2.7h7.2V279h-0.2h-4.1h-2.9
			c-0.5,0-0.9-0.3-1-0.8c0-0.1,0-0.1,0-0.2c0,0,0,0,0-0.1l-0.2-2.8l-1.2-18.5v-0.3c0-0.3-0.1-0.5-0.1-0.8c-0.2-0.9-0.5-1.7-1-2.4
			c0-0.1-0.1-0.1-0.1-0.2c-0.1-0.1-0.1-0.3-0.1-0.4c0-0.5,0.4-1,1-1l0,0h2.9h7v-2.1h-9.9C-199.8,249.3-200.5,249.7-201.1,250.3z"/>
		<path class="st2" d="M-195.3,260.7L-195.3,260.7c-0.5,0.1-0.9,0.5-0.9,1.1c0,0,0,0,0,0.1l0.9,13.2l0.1,0.9l0,0c0,0.5,0.4,1,0.9,1
			h0.1h0.9h4.2h0.1v-15.4c-0.6,0-1.2-0.2-1.8-0.3C-192.2,260.8-193.6,260.3-195.3,260.7z"/>
		<path class="st2" d="M-189.5,260.1c0.2,0,0.3,0,0.5,0v-5.6l-1.2,4.5l0,0v0.1C-190.3,259.6-190,260-189.5,260.1z"/>
		<path class="st2" d="M-483.2,445.2l1.3-1.3l-7.1-7.1v6.6l1.8,1.8C-486.1,446.3-484.3,446.3-483.2,445.2z"/>
		<path class="st2" d="M-469.8,431.8c1.1-1.1,1.1-3,0-4.1l-19.2-19.1v21.8l10.3,10.3L-469.8,431.8z"/>
		<path class="st2" d="M-489,188.4c0.6,1.8,2,3.2,3.7,4c0.1,0,0.1,0,0.2,0.1l0,0c0.4,0.2,0.6,0.6,0.6,1.1c0,0,0,0,0,0.1
			c-0.2,3.7-0.4,10-0.7,15.4c-0.2,3.7-0.3,6.9-0.4,8.5v0.1c0,0.8,0.4,1.7,1,2.3s1.5,1,2.4,1l0,0l0,0c0.9,0,1.8-0.4,2.4-1
			c0.6-0.6,1-1.4,1-2.3v-0.1c-0.2-1.6-0.4-4.8-0.5-8.5c-0.3-5.4-0.6-11.7-0.7-15.4l0,0c0,0,0,0,0-0.1c0-0.5,0.3-0.9,0.6-1.1
			c0.1,0,0.1-0.1,0.2-0.1l0,0c2.4-1.2,4.1-3.6,4.1-6.5c0-4.8-0.5-9.5-1.5-14l0,0v-0.1c-0.1-0.4-0.5-0.7-1-0.7s-1,0.4-1,1
			c0,0,0,0.1,0,0.2c0,0.7,0.2,3.6,0.3,7.8c0,1.2,0,2.6,0,4.1c0,0.7-0.6,1.2-1.2,1.2s-1.2-0.5-1.2-1.1v-0.1l0,0l-0.3-5.3l-0.3-6.9
			c0-0.5-0.4-1-1-1c-0.5,0-1,0.4-1,1l-0.3,6.9l-0.2,5.1l0,0v0.1l0,0c-0.1,0.6-0.6,1.1-1.2,1.1c-0.7,0-1.2-0.6-1.2-1.2
			c0-1.4,0-2.8,0-4c0.1-4.1,0.3-7,0.3-7.8c0-0.1,0-0.2,0-0.2c0-0.5-0.5-1-1-1s-0.8,0.3-1,0.7l0,0v0.1c-0.5,2.1-0.8,4.3-1.1,6.5
			C-489,178.3-489,188.4-489,188.4z"/>
		<path class="st2" d="M-195.8,171c-0.3,0-0.6,0.1-0.7,0.3l0,0c-2.4,2.6-6.4,9.1-6.4,24c0,4.4,2.3,5,2.2,8.4l0,0
			c-0.2,5.3-0.7,11.6-0.9,13.8v0.1c-0.1,1.7,1.5,3.3,3.4,3.3l0,0l0,0c1.8,0,3.4-1.6,3.4-3.3v-0.1c0,0,0-27.1,0-28.2V172
			C-194.8,171.4-195.2,171-195.8,171z"/>
		<path class="st2" d="M-428,170l5.4-5.4c0.6-0.6,0.6-1.6,0-2.2l-2.7-2.7c-0.7-0.7-1.7-0.7-2.3,0l-5.4,5.3c-1.4,1.4-1.4,3.6,0,4.9
			C-431.6,171.3-429.4,171.3-428,170z"/>
		<path class="st2" d="M-427.3,153.4l11,11c1.4,1.4,3.6,1.4,4.9,0l13.3-13.4h-30.2C-428.3,151.9-428,152.7-427.3,153.4z"/>
		<path class="st2" d="M-397.3,450.2c4.4-4.4,4.4-11.5,0-15.9c-4.4-4.4-11.5-4.4-15.9,0l-14.1,14.1c-0.7,0.7-1,1.6-1,2.6h30.2
			L-397.3,450.2z M-399.4,437.1c0.3-0.2,0.8-0.2,1,0.2l0,0l0,0c1.3,1.7,1.8,3.8,1.6,5.8l0,0c0,0.4-0.4,0.7-0.8,0.6
			c-0.4,0-0.7-0.4-0.6-0.8l0,0c0.2-1.7-0.2-3.4-1.3-4.8C-399.8,437.8-399.7,437.3-399.4,437.1z M-399,445.4L-399,445.4
			c0.2-0.4,0.6-0.5,1-0.3s0.5,0.6,0.3,1c-0.2,0.3-0.6,0.5-1,0.3C-399,446.2-399.2,445.8-399,445.4z"/>
		<path class="st2" d="M-454,401c8.3,0,15-6.7,15-15s-6.7-15-15-15s-15,6.7-15,15S-462.3,401-454,401z M-454,396.6
			c-1.6,0-2.9-1.3-2.9-2.9c0-0.9,0.4-1.7,1-2.2l0.1-0.1c0.4-0.3,0.6-0.8,0.6-1.4v-3v-0.8v-0.1v-0.4v-0.5l0,0c0-0.6,0.5-1.1,1.1-1.1
			s1.1,0.4,1.1,1v0.3v0.4v0.4v0.1v0.8v3c0,0.5,0.2,1,0.6,1.4l0.1,0.1c0.6,0.5,1,1.3,1,2.2C-451.1,395.3-452.4,396.6-454,396.6z
			 M-463,380.4c1.8-2.8,4.8-4.7,8.3-4.9c3.8-0.2,7.2,1.5,9.3,4.4c0,0,0,0,0,0.1s0.1,0.1,0.1,0.2c0,0.1,0,0.3-0.1,0.3
			c0,0-0.1,0-0.1,0.1l-1.1,0.7c0,0,0,0-0.1,0c-0.1,0-0.1,0.1-0.2,0.1s-0.2,0-0.3-0.1c0,0,0-0.1-0.1-0.1c-2-2.6-4.7-4.1-8.2-3.9
			c-2.9,0.2-5.3,1.4-7.1,3.4l0,0l0,0c0,0-0.1,0.1-0.2,0.1c-0.1,0-0.2-0.1-0.2-0.2C-463.1,380.5-463,380.4-463,380.4z"/>
		<path class="st2" d="M-349.5,160.4c0,11.3,9.2,20.6,20.6,20.6c8.7,0,16.2-5.4,19.2-13.1c0.9-2.3,1.4-4.8,1.4-7.5
			c0-0.2,0-0.4,0-0.5c0-3-0.5-6-1.3-8.9h-38.5C-349.1,154.1-349.5,157.2-349.5,160.4z M-341.7,156.8c0-0.1,0-0.1,0.1-0.2
			c0.2-0.6,0.8-1.1,1.4-1.1c0.7,0,1.2,0.4,1.4,1c0.1,0.1,0.1,0.3,0.1,0.5c1.3,6.6,6.6,11.8,13.2,13.1c0.1,0,0.2,0,0.3,0.1
			c0.6,0.2,1.1,0.8,1.1,1.4c0,0.7-0.5,1.3-1.1,1.4h-0.1l0,0c-1,0.2-2,0.3-3.1,0.3c-7.5,0-13.6-6.1-13.6-13.6
			C-342.1,158.8-342,157.8-341.7,156.8z"/>
		<path class="st2" d="M-316.7,435.4c-3.8-6.2-8-11-10.4-13.5l-0.1-0.1l0,0c-0.5-0.5-1.1-0.7-1.8-0.7s-1.3,0.3-1.8,0.7l0,0l-0.1,0.1
			c-4.2,4.4-13.9,15.8-17.3,29.1h38.5C-311.2,445.3-313.8,440-316.7,435.4z"/>
		<path class="st2" d="M-236.2,447.7l-6.2-7.4c-0.4-0.5-1.1-0.5-1.6-0.1c-0.1,0.1-0.2,0.2-0.3,0.3l0,0c-1.4,2.5-3.5,5.1-6.3,7.4
			c-1.4,1.2-2.9,2.2-4.3,3h20.5C-234.7,449.8-235.3,448.7-236.2,447.7z"/>
		<path class="st2" d="M-255.8,440.2l3.4,4l0.1,0.1c0.6,0.6,1.6,0.7,2.3,0.1l0.1-0.1l0,0c1.8-1.8,3.1-3.7,3.9-5.4
			c0-0.1,0.1-0.2,0.1-0.3c0.3-0.8,0.2-1.8-0.4-2.5c-0.1-0.1-0.2-0.2-0.3-0.3l0,0c-0.1-0.1-0.2-0.2-0.3-0.2c-1.6-1.1-3.5-1.8-5.4-2
			c-2-0.2-4,0.2-5.8,1.1l0,0l0,0c-0.1,0-0.2,0.1-0.2,0.1l0,0c-0.7,0.3-1.4,0.1-1.9-0.5c0,0,0-0.1-0.1-0.1c-0.1-0.1-0.1-0.2-0.2-0.2
			c-1.3-2.2-1.8-4.4-1.7-6.7l0,0c0-0.1,0-0.2,0-0.2c0-0.6-0.5-1.1-1.1-1.1s-1,0.4-1.1,0.9c0,0.1,0,0.1,0,0.2l0,0
			c-0.2,3,0.5,6,2.4,8.8c0,0,0,0.1,0.1,0.1l0,0c0.3,0.6,0.3,1.3-0.1,1.8c0,0.1-0.1,0.1-0.1,0.1l0,0c-0.1,0.1-0.1,0.2-0.2,0.3
			c-2.4,3.3-2.8,7.7-1,11.3c0,0,0,0.1,0.1,0.1l0,0c0.1,0.1,0.2,0.3,0.3,0.4c0.6,0.7,1.6,1,2.5,0.8c0.1,0,0.1,0,0.2,0l0,0
			c1.9-0.5,4-1.5,6.1-3l0.1-0.1c0.7-0.6,0.8-1.6,0.3-2.3l-0.1-0.2l-3.4-4c-0.3-0.4-0.3-1,0.1-1.3
			C-256.8,439.7-256.2,439.8-255.8,440.2z"/>
		<path class="st2" d="M-200.3,311.9c0-0.5-0.4-0.9-0.9-0.9h-6.9c-0.5,0-0.9,0.4-0.9,0.9v3.6h4.3l4.4,20.1l0.4,2.1v3.3
			c0,0.5,0.4,0.9,0.9,0.9h1.1h8.9v-4.2h-5c-2.6,0-2.6-1-0.5-1.6l5.5-1.6v-18.8h-11.3V311.9z"/>
		<circle class="st2" cx="-197.9" cy="346.6" r="4.4"/>
		<path class="st2" d="M-489,334.5l19.1-5.5c0.5-0.1,0.9-0.6,0.9-1.1v-12.2h-20V334.5z"/>
		<path class="st2" d="M-469,341v-3.3h-20v4.2h13.3h5.8C-469.4,341.9-469,341.5-469,341z"/>
		<circle class="st2" cx="-475.7" cy="346.6" r="4.4"/>
		<path class="st2" d="M-313.7,317.1v-26.5v-1.8c0-0.1,0-0.2,0-0.3c-0.1-0.7-0.4-1-0.5-1.8v-0.1c-0.6-3.8-3-7-6.3-8.7
			c-1.4-0.7-2.9-1.2-4.5-1.3l0,0c-0.1,0-0.1,0-0.2,0c-0.4-0.1-0.7-0.4-0.7-0.8v-1c0-2.1-1.7-3.8-3.8-3.8H-358
			c-2.1,0-3.8,1.7-3.8,3.8v50.7c0,0.7-0.4,1.3-1,1.6l0,0c0,0-0.1,0-0.1,0.1l0,0c-0.2,0.1-0.4,0.2-0.6,0.4c-0.4,0.4-0.6,0.9-0.6,1.4
			c0,1.1,0.9,2,2,2h4.1h28.3h4.1c1.1,0,2-0.9,2-2c0-0.8-0.5-1.5-1.2-1.9l0,0c0,0-0.1,0-0.1-0.1l0,0c-0.6-0.3-1-0.9-1-1.6v-22.3
			c0-0.5,0.4-0.9,0.9-0.9c0.1,0,0.2,0,0.3,0l0,0c0.1,0,0.2,0.1,0.2,0.1l0,0c0.9,0.5,1.1,1.6,1.1,2.5V317c0,2.9,2.2,5.1,4.9,5.1
			C-315.9,322.2-313.7,320-313.7,317.1z M-336.4,302L-336.4,302v3.1v0.1v0.1c0,0.9-0.8,1.6-1.7,1.6h-11.8c-0.9,0-1.7-0.7-1.7-1.6
			v-0.1v-0.1V302v-0.1v-0.1c0-0.9,0.7-1.6,1.6-1.6h0.1h0.1h11.6h0.1h0.1C-337.1,300.3-336.4,301-336.4,302
			C-336.4,301.9-336.4,301.9-336.4,302z M-330.7,294.9L-330.7,294.9c0,1-0.8,1.7-1.7,1.7h-23.2c-0.9,0-1.7-0.7-1.7-1.6v-0.1v-0.1
			v-17.3v-0.1v-0.1c0-0.9,0.7-1.6,1.6-1.6h0.1h0.1h22.9h0.1h0.1c0.9,0.1,1.5,0.8,1.6,1.6v0.1v0.1L-330.7,294.9
			C-330.7,294.8-330.7,294.8-330.7,294.9z M-317.2,291.3v25.8c0,0.8-0.5,1.7-1.5,1.7s-1.5-0.8-1.5-1.7v-12.2c0-3.4-2-5.8-5-6.2l0,0
			c-0.1,0-0.1,0-0.2,0c-0.4-0.1-0.7-0.4-0.7-0.8v-17.8c0-0.5,0.4-0.9,0.9-0.9h0.1l0,0c0.8,0.1,1.6,0.3,2.3,0.5
			c0.1,0,0.2,0.1,0.3,0.1l0,0c0.6,0.3,1,0.9,1,1.5c0,0.1,0,0.2,0,0.2c0,0.1,0,0.2-0.1,0.3l-0.7,3.1c-0.4,1.8,0.7,3.7,2.6,4.1
			l1.3,0.3h0.1c0.7,0.2,1.2,0.8,1.3,1.6v0.1C-317.2,291.2-317.2,291.3-317.2,291.3z"/>
		<polygon class="st2" points="-319.4,226 -322,230.2 -317.1,230.5 -318.3,235.3 -313.5,234.1 -313.2,239 -309,236.4 -307.2,241 
			-304,237.2 -300.8,241 -299,236.4 -294.8,239 -294.5,234.1 -289.7,235.3 -290.9,230.5 -286,230.2 -288.6,226 -284,224.2 
			-287.8,221 -284,217.8 -288.6,216 -286,211.8 -290.9,211.5 -289.7,206.7 -294.5,207.9 -294.8,203 -299,205.6 -300.8,201 
			-304,204.8 -307.2,201 -309,205.6 -313.2,203 -313.5,207.9 -318.3,206.7 -317.1,211.5 -322,211.8 -319.4,216 -324,217.8 
			-320.2,221 -324,224.2 		"/>
		<path class="st2" d="M-414.2,215.6c0-0.1,0.1-0.2,0.1-0.4c0-0.4-0.2-0.8-0.6-1c-0.2-0.1-0.3-0.1-0.5-0.1h-17.5
			c-0.2,0-0.4,0-0.5,0.1c-0.3,0.2-0.6,0.6-0.6,1c0,0.2,0,0.3,0.1,0.4l8.7,19.7c0,0,0,0,0,0.1c0.2,0.4,0.6,0.7,1,0.7
			c0.5,0,0.8-0.3,1-0.7c0,0,0,0,0-0.1L-414.2,215.6C-414.2,215.7-414.2,215.6-414.2,215.6z"/>
		<path class="st2" d="M-435.4,206.1c-0.1,0.5-0.3,0.8-0.7,1.1c-0.1,0-0.1,0.1-0.2,0.1c-0.7,0.4-1.1,1.2-1.1,2.1
			c0,1.4,1.1,2.5,2.5,2.5c0.1,0,0.2,0,0.3,0l0,0h21.2l0,0c0.1,0,0.2,0,0.3,0c1.4,0,2.5-1.1,2.5-2.5c0-0.9-0.5-1.6-1.1-2.1
			c-0.1,0-0.1-0.1-0.2-0.1c-0.4-0.3-0.6-0.7-0.7-1.1l0,0V206c-0.7-5.6-5.5-10-11.4-10c-5.8,0-10.6,4.3-11.4,10
			C-435.4,206-435.4,206.1-435.4,206.1z M-417.8,203.6c0.3-0.1,0.7,0,0.8,0.4c0.1,0.3,0,0.7-0.4,0.8c-0.3,0.1-0.7,0-0.8-0.3l0,0l0,0
			l0,0C-418.3,204-418.2,203.7-417.8,203.6z M-423.2,199.2L-423.2,199.2c1.9,0.2,3.6,1.1,4.8,2.4l0,0c0.2,0.3,0.2,0.7-0.1,0.9
			c-0.3,0.2-0.6,0.2-0.9,0l0,0c-1-1.1-2.4-1.8-4-2l0,0c-0.3,0-0.6-0.3-0.6-0.7C-423.9,199.4-423.6,199.1-423.2,199.2z"/>
		<path class="st2" d="M-294.4,415c1.3,1.3,3.5,1.3,4.8,0l0,0l0,0l23.5-23.5l0,0l0.2-0.2l0,0c0.9-0.9,1.3-2.1,1.4-3.3l0,0l0.4-11.2
			v-0.5c0-1.2-0.5-2.5-1.5-3.4l-5.5-5.5c-1-1-2.3-1.5-3.6-1.4l0,0h-0.5l-10.8,0.8l0,0h-0.2l0,0c-1,0.1-1.9,0.5-2.7,1.1l-0.6,0.6
			l-23.2,23l-0.3,0.3c-1.2,1.3-1.1,3.3,0.2,4.6L-294.4,415z M-278.4,374.1c0.1-0.2,0.3-0.4,0.5-0.6c1.4-1.4,3.7-1.7,5.3-0.6
			c0.3,0.2,0.6,0.4,0.8,0.6c0.3,0.3,0.5,0.6,0.7,0.9c1,1.7,0.7,3.8-0.7,5.2c-0.2,0.2-0.4,0.4-0.6,0.5c-1.7,1.2-4,1-5.6-0.5
			C-279.4,378.2-279.6,375.8-278.4,374.1z"/>
		<path class="st2" d="M-416.1,408.7C-416.1,408.8-416.1,408.8-416.1,408.7c2.8,0.9,5.7,1.5,8.6,2.1c0.1,0,0.2,0,0.3,0.1
			c0.4,0.1,0.8,0.1,1.2,0.1h12h3.7h12c0.4,0,0.8,0,1.2-0.1c0.1,0,0.2,0,0.3-0.1c2.9-0.5,5.7-1.2,8.5-2.1l0,0
			c0.5-0.2,0.8-0.6,0.8-1.1s-0.3-1-0.8-1.1l0,0c-0.2-0.1-0.5-0.1-0.7-0.1h-0.5h-2h-12.8h-1h-14h-1h-12.8h-2h-0.6
			c-0.2,0-0.3,0-0.5,0.1c-0.1,0-0.1,0-0.2,0l0,0c-0.5,0.2-0.8,0.6-0.8,1.1C-416.9,408.2-416.6,408.6-416.1,408.7z"/>
		<path class="st2" d="M-361.1,387.1c0-0.1,0-0.1,0-0.2c0-0.1,0-0.1,0-0.2c-0.1-3.6-2.8-6.5-6.2-7.1c-0.2,0-0.3-0.1-0.4-0.2
			c-0.2-0.1-0.3-0.2-0.4-0.4c-0.2-0.2-0.3-0.5-0.3-0.8c0-1.3-1.1-2.4-2.4-2.4h-12h-30.6c-1.3,0-2.4,1.1-2.4,2.4l0,0
			c0,0.1,0,0.2,0,0.3c0.5,6.5,2.7,12.5,6.2,17.6c1.7,2.4,3.7,4.7,5.9,6.6l0,0c0.7,0.6,1.6,1,2.6,1h2.4h13.1h2.4
			c0.9,0,1.6-0.3,2.3-0.8l0,0c0.1-0.1,0.3-0.2,0.4-0.4c0.7-0.6,1.4-1.2,2-1.9l0,0c0.3-0.3,0.8-0.5,1.3-0.5l0,0c0.2,0,0.3,0,0.5,0.1
			c0.6,0.1,1.3,0.1,2,0.1c1.2,0,2.3-0.1,3.4-0.4C-365.5,398.6-361.2,393.4-361.1,387.1z M-372.6,396.9c-0.1,0-0.2,0-0.2,0l0,0h-0.1
			c-0.7,0-1.2-0.5-1.2-1.2c0-0.2,0.1-0.4,0.2-0.6V395c0.4-0.7,0.8-1.4,1.2-2c0.6-1,1.1-2,1.5-3.1c0.7-1.7,1.3-3.6,1.8-5.4
			c0-0.1,0-0.1,0-0.2l0,0c0.2-0.7,0.9-1.2,1.7-1.2c0.2,0,0.4,0,0.5,0.1c0.1,0,0.3,0.1,0.4,0.2c1.3,0.7,2.3,2,2.3,3.6
			c0,2.9-1.2,5.5-3.1,7.4C-369,395.5-370.7,396.5-372.6,396.9z"/>
		<path class="st2" d="M-388.5,371.8L-388.5,371.8c-0.1,0.1-0.1,0.2-0.1,0.3c0,0.3,0.2,0.5,0.5,0.5c0.1,0,0.2,0,0.3-0.1l0.1-0.1
			c2.2-1.8,4.1-4.5,4.1-7.6c0-4.3-5.4-6.3-5.4-9.9c0-1.3,0.2-2.4,0.5-3.2c0-0.1,0-0.1,0.1-0.2v-0.1c0-0.3-0.2-0.5-0.5-0.5
			c-0.1,0-0.2,0-0.3,0.1l-0.1,0.1c-1.5,1.3-3.3,3.6-3.3,6.7c0,5.4,5.3,5.5,5.3,9.5C-387.3,369.2-387.9,370.7-388.5,371.8
			L-388.5,371.8z"/>
		<path class="st2" d="M-396.1,369.9C-396.1,369.9-396.1,370-396.1,369.9c0,0.4,0.2,0.6,0.5,0.6c0.1,0,0.3,0,0.3-0.1l0,0
			c1-1.1,1.8-2.5,1.8-4.1c0-2.7-3.4-4-3.4-6.2c0-0.5,0.1-1,0.2-1.4l0,0v-0.1c0-0.3-0.2-0.5-0.5-0.5c-0.1,0-0.3,0.1-0.3,0.1
			s0,0-0.1,0.1c-0.8,0.9-1.5,2.1-1.5,3.7c0,3.4,3.4,3.4,3.4,6c0,0.7-0.1,1.3-0.3,1.9C-396,369.8-396.1,369.8-396.1,369.9z"/>
		<path class="st2" d="M-239,321.1L-239,321.1C-239,321-239,321-239,321.1c0-0.1,0-0.1,0-0.1l0,0c0-11-9-19.9-20-19.9s-20,9-20,20
			l0,0c0,11,9,20,20,20C-248,341-239,332.1-239,321.1z M-254.5,336.2c-0.1,0-0.1,0-0.2,0c-0.2,0-0.4,0.1-0.5,0.1
			c-1.2,0-2.3-1-2.3-2.3v-2.2c0-0.8-0.7-1.5-1.5-1.5l0,0c-0.8,0-1.5,0.7-1.5,1.5v2.2c0,1.2-1,2.3-2.3,2.3c-0.2,0-0.4,0-0.6-0.1h-0.1
			c-2.5-0.7-4.9-2.1-6.8-4c-1.9-1.9-3.3-4.2-4-6.8l0,0c-0.1-0.2-0.1-0.4-0.1-0.7c0-1.2,1-2.3,2.3-2.3h2.1c0.8,0,1.5-0.7,1.5-1.5v0.1
			c0-0.8-0.7-1.5-1.5-1.5h-2.1c-1.2,0-2.3-1-2.3-2.3c0-0.2,0-0.4,0.1-0.6l0,0c0.7-2.6,2.1-4.9,4-6.9c1.9-1.9,4.2-3.3,6.8-4l0,0
			c0.2-0.1,0.4-0.1,0.7-0.1c1.2,0,2.3,1,2.3,2.3v2.1c0,0.8,0.7,1.5,1.5,1.5h0.1c0.8,0,1.5-0.7,1.5-1.5v-2.1c0-1.2,1-2.3,2.3-2.3
			c0.2,0,0.5,0,0.7,0.1l0,0c2.5,0.7,4.9,2.1,6.8,4c1.9,1.9,3.3,4.2,4,6.8c0,0,0,0.1,0,0.2c0,0.2,0.1,0.4,0.1,0.5
			c0,1.2-1,2.3-2.3,2.3h-2.2c-0.8,0-1.5,0.7-1.5,1.5v0.1c0,0.8,0.7,1.5,1.5,1.5h2.2c1.2,0,2.3,1,2.3,2.3c0,0.2,0,0.5-0.1,0.7
			c-0.7,2.5-2.1,4.9-4,6.8C-249.7,334.1-252,335.5-254.5,336.2z"/>
		<path class="st2" d="M-234.3,395.5c0.6,0.6,1.7,0.6,2.3,0l17.6-17.6c0.6-0.6,0.6-1.7,0-2.3l-2.4-2.4c-0.5,0.3-1,0.4-1.5,0.4
			c-1.8,0-3.2-1.4-3.2-3.2c0-0.6,0.1-1.1,0.4-1.5l-2.4-2.4c-0.6-0.6-1.7-0.6-2.3,0l-17.7,17.5c-0.6,0.6-0.6,1.7,0,2.3l2.4,2.4
			c0.5-0.3,1-0.4,1.5-0.4c1.8,0,3.2,1.4,3.2,3.2c0,0.6-0.1,1.1-0.4,1.5L-234.3,395.5z M-239.7,383.5l13-13l8.3,8.3l-13,13
			L-239.7,383.5z"/>
		
			<rect x="-233.1" y="373.7" transform="matrix(-0.7071 -0.7071 0.7071 -0.7071 -660.4698 488.5365)" class="st2" width="8" height="14.7"/>
		<path class="st2" d="M-329,355.6c-3,0-5.4,2.4-5.4,5.4s2.4,5.4,5.4,5.4s5.4-2.4,5.4-5.4S-326,355.6-329,355.6z M-329,363.4
			c-1.3,0-2.4-1.1-2.4-2.4s1.1-2.4,2.4-2.4s2.4,1.1,2.4,2.4S-327.7,363.4-329,363.4z"/>
		<path class="st2" d="M-329,348.5c-6.9,0-12.5,5.6-12.5,12.5s5.6,12.5,12.5,12.5s12.5-5.6,12.5-12.5S-322.1,348.5-329,348.5z
			 M-329,367.9c-3.8,0-6.9-3.1-6.9-6.9s3.1-6.9,6.9-6.9s6.9,3.1,6.9,6.9S-325.2,367.9-329,367.9z"/>
		<path class="st2" d="M-228.3,195.5C-228.3,195.4-228.3,195.4-228.3,195.5c0-0.5-0.4-0.9-0.9-0.9h-19.7c-0.5,0-0.8,0.4-0.9,0.8l0,0
			l0,0v6.7l0,0l0,0c0,0.4,0.4,0.8,0.8,0.8c0,0,0,0,0.1,0c0,0,0,0,0.1,0h2.9h6.8h6.8h2.9c0,0,0,0,0.1,0c0,0,0,0,0.1,0
			c0.4,0,0.8-0.4,0.8-0.8l0,0l0,0L-228.3,195.5L-228.3,195.5z M-245.3,200.8c-1.1,0-2-0.9-2-2c0-1.1,0.9-2,2-2s2,0.9,2,2
			C-243.3,199.9-244.2,200.8-245.3,200.8z M-232.7,200.8c-1.1,0-2-0.9-2-2c0-1.1,0.9-2,2-2s2,0.9,2,2
			C-230.8,199.9-231.6,200.8-232.7,200.8z"/>
		<path class="st2" d="M-224,209.8v-17.6c0-1-0.8-1.9-1.9-1.9h-26.2c-1,0-1.9,0.8-1.9,1.9v17.6c0,1,0.8,1.9,1.9,1.9h26.2
			C-224.8,211.7-224,210.9-224,209.8z M-226.6,193.7C-226.6,193.8-226.6,193.8-226.6,193.7v14.5l0,0l0,0c0,0.4-0.4,0.8-0.8,0.8
			c0,0,0,0-0.1,0c0,0,0,0-0.1,0h-1.2h-0.1h-0.1c-0.5,0-0.9-0.3-1.1-0.8l0,0l-1.1-2.7l0,0v-0.1c-0.2-0.5-0.7-0.8-1.2-0.8h-6.6h-6.7
			c-0.5,0-1,0.3-1.2,0.8v0.1l0,0l-1.1,2.7l0,0c-0.2,0.4-0.6,0.7-1.1,0.8h-0.1h-0.1h-1.2c0,0,0,0-0.1,0c0,0,0,0-0.1,0
			c-0.4,0-0.8-0.4-0.8-0.8l0,0l0,0v-14.4l0,0l0,0c0-0.5,0.4-0.8,0.9-0.8h23.1C-227,192.9-226.6,193.2-226.6,193.7L-226.6,193.7z"/>
		<path class="st2" d="M-231.2,280.8L-231.2,280.8l0.3,0.1c0.5,0.1,1,0,1.4-0.4c0.4-0.4,0.5-0.9,0.4-1.4l-0.2-0.4l-13.1-30.6l0,0
			c-0.1-0.2-0.2-0.3-0.3-0.5c-0.4-0.4-0.9-0.5-1.4-0.4l0,0c-0.1,0-0.1,0-0.2,0.1l0,0c-4,1.5-7.8,4-11.1,7.2c-3.3,3.3-5.7,7-7.2,11.1
			l0,0c0,0.1,0,0.1-0.1,0.2l0,0c-0.1,0.5,0,1,0.4,1.4c0.1,0.1,0.3,0.2,0.4,0.3l0,0L-231.2,280.8z M-241,267.9c1.1-1.1,2.8-1.1,3.8,0
			c1.1,1.1,1.1,2.8,0,3.8c-1.1,1.1-2.8,1.1-3.8,0C-242.1,270.7-242.1,269-241,267.9z M-247.9,254.2c1.1-1.1,2.8-1.1,3.8,0
			c1.1,1.1,1.1,2.8,0,3.8c-1.1,1.1-2.8,1.1-3.8,0S-248.9,255.2-247.9,254.2z M-251,264.7c0.6-1.7,2.3-2.2,3.3-2.1s1.2,1.1,1,1.7
			c-0.2,0.6-0.1,0.8,0.4,0.9c0.5,0.1,1.2,0.2,1.2,0.8c0.1,0.6-0.1,1.4-0.7,1.9c-0.6,0.5-1.3-0.2-1.6-0.5c-0.3-0.2-0.5-0.1-0.8,0.2
			c-0.2,0.4-0.6,1.2-1.8,0.6C-251.1,267.9-251.6,266.4-251,264.7z"/>
		<path class="st2" d="M-268.9,263L-268.9,263c0,0.1-0.1,0.1-0.1,0.2l0,0c-0.1,0.5,0,1,0.4,1.4c0.1,0.1,0.3,0.2,0.4,0.3h0.1l1.5,0.7
			l0.2,0.1c0.5,0.2,1.1,0.1,1.5-0.3c0.1-0.1,0.2-0.3,0.3-0.5c0,0,0,0,0-0.1c1.7-4.3,4.2-8.3,7.7-11.7c3.4-3.4,7.4-6,11.7-7.6
			c0,0,0,0,0.1,0c0.2-0.1,0.3-0.2,0.5-0.3c0.4-0.4,0.5-1,0.4-1.5l-0.1-0.3l-0.7-1.5v-0.1c-0.1-0.1-0.2-0.3-0.3-0.4
			c-0.4-0.4-1-0.5-1.5-0.4c-0.1,0-0.1,0-0.2,0.1l0,0c-4.8,1.9-9.3,4.8-13.2,8.7C-264.1,253.7-267,258.2-268.9,263z"/>
		<path class="st2" d="M-426.3,310.3L-426.3,310.3c0,0.2,0.1,0.3,0.2,0.3s0.1,0,0.2-0.1l0,0c0.5-0.5,0.9-1.2,0.9-2
			c0-1.3-1.7-2-1.7-3.1c0-0.3,0-0.5,0.1-0.7l0,0l0,0c0-0.1-0.1-0.2-0.3-0.2c-0.1,0-0.1,0-0.2,0.1l0,0c-0.4,0.4-0.8,1-0.8,1.8
			c0,1.7,1.6,1.7,1.6,2.9C-426.1,309.6-426.2,309.9-426.3,310.3C-426.3,310.2-426.3,310.3-426.3,310.3z"/>
		<path class="st2" d="M-422.5,311.2C-422.5,311.2-422.6,311.2-422.5,311.2C-422.5,311.3-422.5,311.3-422.5,311.2
			c0,0.2,0.1,0.3,0.2,0.3h0.1c0,0,0,0,0.1,0c1.1-0.9,2-2.2,2-3.7c0-2.1-2.7-3.1-2.7-4.9c0-0.6,0.1-1.2,0.3-1.5v-0.1l0,0
			c0-0.1-0.1-0.2-0.2-0.2h-0.1c0,0,0,0-0.1,0.1c-0.7,0.7-1.6,1.8-1.6,3.3c0,2.7,2.6,2.7,2.6,4.7C-422,309.9-422.2,310.7-422.5,311.2
			L-422.5,311.2z"/>
		<path class="st2" d="M-432.3,339.8c-0.1,0.5,0.2,0.9,0.6,1.1h0.1c0.5,0.2,1.2,0,1.3-0.7l0.4-3c0,0,0,0,0-0.1
			c0.1-0.5,0.5-0.9,1-0.9h9.9c0.5,0,0.9,0.4,1,0.9c0,0,0,0,0,0.1l0.4,3c0.1,0.7,0.8,0.9,1.3,0.7h0.1c0.5-0.2,0.7-0.6,0.6-1.1
			l-1.8-13.2c-0.1-0.8,0-1.3,0.4-1.5l0,0l0.1-0.1c3.9-2.3,6.3-6.3,6.9-10.1v-0.1l0,0v-0.1c0-0.5-0.4-0.8-0.8-0.8h-26.4
			c-0.5,0-0.8,0.4-0.8,0.8v0.1l0,0v0.1c0.6,3.8,3,7.8,6.9,10l0,0c0.1,0,0.1,0.1,0.2,0.1l0,0c0.5,0.3,0.5,0.7,0.4,1.5L-432.3,339.8z
			 M-427.4,326.4L-427.4,326.4c0.1,0,0.2,0,0.2,0l0,0h0.1c1,0.2,2,0.3,3.1,0.3s2.2-0.1,3.2-0.3l0,0c0.1,0,0.2,0,0.2,0
			c0.5,0,1.1,0.3,1.2,0.9l0.8,6l0,0c0,0.1,0,0.1,0,0.2c0,0.6-0.5,1-1,1h-8.8c-0.6,0-1-0.5-1-1v-0.1l0,0l0.8-6
			C-428.5,326.7-427.9,326.4-427.4,326.4z M-434.3,317.6C-434.4,317.6-434.4,317.6-434.3,317.6
			C-434.4,317.6-434.4,317.6-434.3,317.6c-0.1-0.5,0.1-0.9,0.5-1c0.4-0.1,0.8,0.1,1,0.4l0,0c0.6,1.7,1.8,3.2,3.6,4.2
			c0.4,0.2,0.5,0.7,0.3,1.1c-0.2,0.4-0.7,0.5-1.1,0.3C-432.1,321.5-433.6,319.7-434.3,317.6z"/>
		<path class="st2" d="M-454.1,271.6c-0.1,0-0.1,0-0.2,0l-2.4,0.3c-1.3,0.2-2.3,1.4-2.3,2.7v1.2c0,1.3,1,2.2,2.3,2l2.7-0.4
			c1.3-0.2,2.3-1.4,2.3-2.7v-0.1l0,0v-10.8v-0.1v-0.1c0-0.8,0.6-1.4,1.3-1.6c0.1,0,0.2,0,0.3,0l7.7-1.2h0.1h0.1
			c0.6,0,1.2,0.5,1.2,1.2v6.3c0,0.4-0.2,0.7-0.6,0.8l0,0c-0.1,0-0.1,0-0.2,0l-2.4,0.3c-1.3,0.2-2.3,1.4-2.3,2.7v1.2
			c0,1.3,1,2.2,2.3,2l2.7-0.4c1.3-0.2,2.3-1.4,2.3-2.7l0,0V271v-15.6c0-0.6-0.5-1.2-1.2-1.2h-0.1h-0.2l-11.4,1.8l-0.4,0.1
			c-0.7,0.2-1.3,0.9-1.3,1.7l0,0l0,0v13l0,0C-453.5,271.2-453.7,271.5-454.1,271.6z"/>
		<path class="st2" d="M-403.8,272.7c-0.5,0.6-1,1.3-1.6,1.8l0,0c-0.6,0.6-1.3,1.2-2,1.7c-0.4,0.3-0.9,0.4-1.3,0.2
			c-0.2-0.1-0.4-0.2-0.6-0.4l-3.1-3.1c-0.4-0.4-1-0.4-1.4,0c-0.2,0.2-0.3,0.4-0.3,0.6l0,0v0.1l0,0c0.1,1.9,0.8,3.7,2.2,5.1
			c0.1,0.1,0.1,0.1,0.2,0.2c2.1,1.9,4.9,2.5,7.5,1.7c0.1-0.1,0.2-0.1,0.3-0.1c0.4-0.1,0.9,0,1.2,0.3l0,0l0.1,0.1l0.1,0.1l0,0
			c2,2.1,9.2,9.3,13.1,13.8c1.1,1.3,3.1,1.2,4.3,0c1.2-1.2,1.2-3.3,0-4.3c-4.7-4.1-11.8-11.1-13.8-13.1l-0.1-0.1c0,0,0-0.1-0.1-0.1
			c-0.3-0.4-0.4-0.8-0.3-1.3c0-0.1,0.1-0.2,0.1-0.3l0,0c0.8-2.5,0.2-5.4-1.7-7.5c-0.1-0.1-0.1-0.1-0.2-0.2c-1.4-1.4-3.3-2.2-5.1-2.2
			l0,0h-0.1l0,0c-0.2,0-0.5,0.1-0.6,0.3c-0.4,0.4-0.4,1,0,1.4l3.1,3.1c0.2,0.2,0.3,0.4,0.4,0.6c0.1,0.4,0.1,0.9-0.2,1.2
			C-403.7,272.6-403.7,272.7-403.8,272.7z M-388.1,291.9c0.5-0.5,1.3-0.5,1.7,0c0.5,0.5,0.5,1.3,0,1.7c-0.5,0.5-1.3,0.5-1.7,0
			C-388.6,293.2-388.6,292.4-388.1,291.9z"/>
		<path class="st2" d="M-372.5,223.2v25.6c0,1.2,1,2.2,2.2,2.2h12.6c1.2,0,2.2-1,2.2-2.2v-25.6c0-1.2-1-2.2-2.2-2.2h-12.6
			C-371.5,221-372.5,222-372.5,223.2z M-364,249.9c-0.8,0-1.4-0.6-1.4-1.4s0.6-1.4,1.4-1.4s1.4,0.6,1.4,1.4
			C-362.6,249.2-363.2,249.9-364,249.9z M-365.7,222.7h0.2h1.3h0.5l0,0h0.3h1.1l0,0c0.4,0,0.7,0.3,0.7,0.7c0,0.3-0.3,0.6-0.6,0.7
			h-0.2h-1h-0.3l0,0h-0.5h-1.4l0,0c-0.4,0-0.7-0.3-0.7-0.7C-366.3,223.1-366.1,222.8-365.7,222.7z M-370.2,227L-370.2,227
			c0-0.6,0.4-1.1,1-1.2c0.1,0,0.1,0,0.2,0s0.1,0,0.2,0h9.5c0.1,0,0.1,0,0.2,0s0.1,0,0.2,0c0.5,0.1,0.9,0.5,1,1v0.1v0.1v17.8v0.1v0.1
			c-0.1,0.6-0.6,1.1-1.2,1.1l0,0h-9.9l0,0c-0.7,0-1.2-0.5-1.2-1.2l0,0V227z"/>
		<path class="st2" d="M-285.1,286v-1.6c1.2-0.5,2.1-1.6,2.1-2.9v-7.8c0-1.5-1.1-2.8-2.7-3.1V267c0.8,0,0.7-0.5,0.7-0.5
			c0-0.3-0.4-0.5-0.8-0.5h-6.4c-0.5,0-0.8,0.2-0.8,0.5c0,0-0.1,0.5,0.7,0.5v3.5c-1.5,0.3-2.7,1.6-2.7,3.1v7.8c0,1.3,0.9,2.5,2.1,2.9
			v1.6h7.8V286z M-290.4,267.6h4.2v2.4h-4.2V267.6z M-290.1,271.2h3.8c2,0,2.5,2.4,2.5,2.4v8.2c-0.3,1.3-2,1.9-2,1.9l-0.9-4.9
			c-0.5-4.9-3.5-6-3.5-6C-292,272.3-290.1,271.2-290.1,271.2z M-291.7,284.6h5.4c0.1,0,0.1,0,0.2,0c-0.1,0.3-0.4,0.5-0.8,0.5h-4.2
			c-0.4,0-0.7-0.2-0.8-0.5C-291.8,284.6-291.8,284.6-291.7,284.6z"/>
		<path class="st2" d="M-383.2,182.7c0,0-0.3-0.6-0.4-0.8c-0.1-0.2-0.3-0.2-0.5-0.1c-0.2,0.1-1.8,0.9-2,1c-0.3,0.1-0.3,0.4-0.2,0.6
			c0.1,0.2,0.5,0.9,0.6,1.2c0,0.1,0.1,0.1,0.1,0.1l2.6-1.3v-0.1C-383,183.1-383.2,182.7-383.2,182.7z"/>
		<path class="st2" d="M-377.8,190.7h-2.1c-0.4,0-0.7,0.3-0.7,0.7v2.8c0,0.4,0.3,0.7,0.7,0.7h2.1c0.4,0,0.7-0.3,0.7-0.7v-2.8
			C-377.1,191-377.4,190.7-377.8,190.7z"/>
		<path class="st2" d="M-373.7,181c-1.4,0-4.9,0-5.7,0c-0.9,0-1.3,0.7-1.7,1.3c-0.4,0.6-0.7,1.4-0.7,1.4s-0.2,0.1-0.5,0.2
			c-0.1-0.1-0.4-0.3-0.5-0.2c-0.8,0.4-1.9,0.9-2.5,1.2c-0.1,0-0.1,0.4-0.1,0.6l0,0c-0.4,0.2-0.7,0.8-0.7,1.2c0,0.2,0,11.4,0,12.1
			c0,1.2,0.9,2.3,2.3,2.3c1.5,0,9.1,0,9.9,0c1.2,0,2.2-1.1,2.2-2.3c0-0.8,0-15.2,0-15.6C-371.7,182.2-372.5,181-373.7,181z
			 M-380,182.1c0.2-0.4,0.8-0.6,1-0.6s3.7,0,3.7,0s0.5,0,0.6,0.2c0.1,0.1,0.1,0.3,0,0.5c0,0.1-0.3,0.5-0.8,0.9
			c-0.3,0.2-0.5,0.4-1.2,0.5c-0.7,0.1-2.1,0.1-2.7,0.1s-1.1,0.2-1.1,0.2l-0.6,0.2C-381,184.1-380.2,182.4-380,182.1z M-373.4,198.5
			c-0.1,0.1-0.3,0.1-0.4,0l-3.1-3.1c-0.1,0.1-0.3,0.1-0.4,0.1h-2.9c-0.1,0-0.3,0-0.4-0.1l-3.1,3.1c-0.1,0.1-0.3,0.1-0.4,0
			s-0.1-0.3,0-0.4l3.1-3.1c-0.1-0.1-0.1-0.3-0.1-0.4V191c0-0.1,0-0.3,0.1-0.4l-3.1-3.1c-0.1-0.1-0.1-0.3,0-0.4
			c0.1-0.1,0.3-0.1,0.4,0l3.1,3.1c0.1-0.1,0.3-0.1,0.4-0.1h2.8c0.1,0,0.3,0,0.4,0.1l3.1-3.1c0.1-0.1,0.3-0.1,0.4,0
			c0.1,0.1,0.1,0.3,0,0.4l-3.1,3.1c0.1,0.1,0.1,0.3,0.1,0.4v3.5c0,0.1,0,0.3-0.1,0.4l3.1,3.1C-373.3,198.2-373.3,198.4-373.4,198.5z
			"/>
		<path class="st2" d="M-259,152.9c-0.1,0-0.2,0.1-0.3,0.2c-0.5,0.4-0.5,1.1-0.1,1.6l6.2,7.4c2,2.4,4.7,3.7,7.6,3.9
			c2.8,0.3,5.8-0.6,8.1-2.6c3.7-3.1,4.9-8.1,3.3-12.4h-20.5C-256.2,151.8-257.6,152.4-259,152.9C-258.9,152.9-259,152.9-259,152.9z"
			/>
		<path class="st2" d="M-189,436.8l-17.9-17.9l-1.3,1.3c-1.1,1.1-1.1,3,0,4.1l19.2,19.2L-189,436.8L-189,436.8z"/>
		<path class="st2" d="M-190.8,406.8c-1.1-1.1-3-1.1-4.1,0l-8.8,8.8l14.7,14.7v-21.8L-190.8,406.8z M-192.4,418.4
			c-0.7,0.7-1.8,0.7-2.4,0l-2.1-2.1c-0.7-0.7-0.7-1.8,0-2.4l2.1-2.1c0.7-0.7,1.8-0.7,2.4,0l2.1,2.1c0.7,0.7,0.7,1.8,0,2.4
			L-192.4,418.4z"/>
	</g>
</g>
</svg>
